<mxfile host="app.diagrams.net" agent="Mozilla/5.0 (Macintosh; Intel Mac OS X 10_15_7) AppleWebKit/537.36 (KHTML, like Gecko) Chrome/126.0.0.0 Safari/537.36" version="24.7.5">
  <diagram name="Page-1" id="e7e014a7-5840-1c2e-5031-d8a46d1fe8dd">
    <mxGraphModel dx="2714" dy="1077" grid="1" gridSize="10" guides="1" tooltips="1" connect="1" arrows="1" fold="1" page="0" pageScale="1" pageWidth="1169" pageHeight="827" background="#FFFFFF" math="0" shadow="0">
      <root>
        <mxCell id="0" />
        <mxCell id="1" parent="0" />
        <mxCell id="QJ5VWwcvUCWhWTVHEH9p-42" value="start&lt;br&gt;tournaments" style="rounded=1;whiteSpace=wrap;html=1;labelBackgroundColor=none;" vertex="1" parent="1">
          <mxGeometry x="50" y="20" width="100" height="40" as="geometry" />
        </mxCell>
        <mxCell id="QJ5VWwcvUCWhWTVHEH9p-45" value="data base create tournaments id" style="rounded=1;whiteSpace=wrap;html=1;labelBackgroundColor=none;" vertex="1" parent="1">
          <mxGeometry x="20" y="110" width="160" height="30" as="geometry" />
        </mxCell>
        <mxCell id="QJ5VWwcvUCWhWTVHEH9p-52" value="" style="edgeStyle=orthogonalEdgeStyle;rounded=1;orthogonalLoop=1;jettySize=auto;html=1;exitX=0.5;exitY=1;exitDx=0;exitDy=0;entryX=0.5;entryY=0;entryDx=0;entryDy=0;labelBackgroundColor=none;fontColor=default;" edge="1" parent="1" source="QJ5VWwcvUCWhWTVHEH9p-45" target="QJ5VWwcvUCWhWTVHEH9p-47">
          <mxGeometry relative="1" as="geometry">
            <mxPoint x="190" y="205" as="targetPoint" />
          </mxGeometry>
        </mxCell>
        <mxCell id="QJ5VWwcvUCWhWTVHEH9p-47" value="team to prepare" style="rounded=1;whiteSpace=wrap;html=1;labelBackgroundColor=none;" vertex="1" parent="1">
          <mxGeometry x="20" y="190" width="160" height="30" as="geometry" />
        </mxCell>
        <mxCell id="QJ5VWwcvUCWhWTVHEH9p-49" value="" style="endArrow=classic;html=1;rounded=1;entryX=0.5;entryY=0;entryDx=0;entryDy=0;exitX=0.5;exitY=1;exitDx=0;exitDy=0;labelBackgroundColor=none;fontColor=default;" edge="1" parent="1" source="QJ5VWwcvUCWhWTVHEH9p-42" target="QJ5VWwcvUCWhWTVHEH9p-45">
          <mxGeometry width="50" height="50" relative="1" as="geometry">
            <mxPoint x="100" y="70" as="sourcePoint" />
            <mxPoint x="610" y="410" as="targetPoint" />
          </mxGeometry>
        </mxCell>
        <mxCell id="QJ5VWwcvUCWhWTVHEH9p-58" style="edgeStyle=orthogonalEdgeStyle;rounded=1;orthogonalLoop=1;jettySize=auto;html=1;exitX=0.5;exitY=1;exitDx=0;exitDy=0;entryX=0.5;entryY=0;entryDx=0;entryDy=0;labelBackgroundColor=none;fontColor=default;" edge="1" parent="1" source="QJ5VWwcvUCWhWTVHEH9p-53" target="QJ5VWwcvUCWhWTVHEH9p-55">
          <mxGeometry relative="1" as="geometry" />
        </mxCell>
        <mxCell id="QJ5VWwcvUCWhWTVHEH9p-53" value="save database&lt;br&gt;and send host" style="rounded=1;whiteSpace=wrap;html=1;labelBackgroundColor=none;" vertex="1" parent="1">
          <mxGeometry x="30" y="260" width="140" height="30" as="geometry" />
        </mxCell>
        <mxCell id="QJ5VWwcvUCWhWTVHEH9p-54" value="" style="endArrow=classic;html=1;rounded=1;exitX=0.5;exitY=1;exitDx=0;exitDy=0;labelBackgroundColor=none;fontColor=default;" edge="1" parent="1" source="QJ5VWwcvUCWhWTVHEH9p-47">
          <mxGeometry width="50" height="50" relative="1" as="geometry">
            <mxPoint x="560" y="460" as="sourcePoint" />
            <mxPoint x="100" y="260" as="targetPoint" />
          </mxGeometry>
        </mxCell>
        <mxCell id="QJ5VWwcvUCWhWTVHEH9p-57" style="edgeStyle=orthogonalEdgeStyle;rounded=1;orthogonalLoop=1;jettySize=auto;html=1;exitX=0.25;exitY=0;exitDx=0;exitDy=0;labelBackgroundColor=none;fontColor=default;" edge="1" parent="1" source="QJ5VWwcvUCWhWTVHEH9p-55">
          <mxGeometry relative="1" as="geometry">
            <mxPoint x="70" y="340" as="targetPoint" />
          </mxGeometry>
        </mxCell>
        <mxCell id="QJ5VWwcvUCWhWTVHEH9p-60" style="edgeStyle=orthogonalEdgeStyle;rounded=1;orthogonalLoop=1;jettySize=auto;html=1;exitX=0.5;exitY=1;exitDx=0;exitDy=0;entryX=0.5;entryY=0;entryDx=0;entryDy=0;labelBackgroundColor=none;fontColor=default;" edge="1" parent="1" source="QJ5VWwcvUCWhWTVHEH9p-55" target="QJ5VWwcvUCWhWTVHEH9p-59">
          <mxGeometry relative="1" as="geometry" />
        </mxCell>
        <mxCell id="QJ5VWwcvUCWhWTVHEH9p-55" value="announce teams" style="rounded=1;whiteSpace=wrap;html=1;labelBackgroundColor=none;" vertex="1" parent="1">
          <mxGeometry x="25" y="330" width="150" height="30" as="geometry" />
        </mxCell>
        <mxCell id="QJ5VWwcvUCWhWTVHEH9p-63" value="" style="edgeStyle=orthogonalEdgeStyle;rounded=1;orthogonalLoop=1;jettySize=auto;html=1;labelBackgroundColor=none;fontColor=default;" edge="1" parent="1" source="QJ5VWwcvUCWhWTVHEH9p-59" target="QJ5VWwcvUCWhWTVHEH9p-61">
          <mxGeometry relative="1" as="geometry" />
        </mxCell>
        <mxCell id="QJ5VWwcvUCWhWTVHEH9p-59" value="announce match and players" style="rounded=1;whiteSpace=wrap;html=1;labelBackgroundColor=none;" vertex="1" parent="1">
          <mxGeometry x="25" y="390" width="150" height="30" as="geometry" />
        </mxCell>
        <mxCell id="QJ5VWwcvUCWhWTVHEH9p-83" value="" style="edgeStyle=orthogonalEdgeStyle;rounded=0;orthogonalLoop=1;jettySize=auto;html=1;" edge="1" parent="1" source="QJ5VWwcvUCWhWTVHEH9p-61" target="QJ5VWwcvUCWhWTVHEH9p-80">
          <mxGeometry relative="1" as="geometry" />
        </mxCell>
        <mxCell id="QJ5VWwcvUCWhWTVHEH9p-61" value="start game" style="rounded=1;whiteSpace=wrap;html=1;labelBackgroundColor=none;" vertex="1" parent="1">
          <mxGeometry x="25" y="460" width="150" height="30" as="geometry" />
        </mxCell>
        <mxCell id="QJ5VWwcvUCWhWTVHEH9p-66" value="" style="endArrow=classic;html=1;rounded=1;exitX=1;exitY=0.5;exitDx=0;exitDy=0;entryX=0.442;entryY=-0.1;entryDx=0;entryDy=0;entryPerimeter=0;labelBackgroundColor=none;fontColor=default;" edge="1" parent="1" source="QJ5VWwcvUCWhWTVHEH9p-61" target="QJ5VWwcvUCWhWTVHEH9p-67">
          <mxGeometry width="50" height="50" relative="1" as="geometry">
            <mxPoint x="560" y="370" as="sourcePoint" />
            <mxPoint x="430" y="110" as="targetPoint" />
            <Array as="points">
              <mxPoint x="230" y="40" />
              <mxPoint x="600" y="40" />
            </Array>
          </mxGeometry>
        </mxCell>
        <mxCell id="QJ5VWwcvUCWhWTVHEH9p-71" value="" style="edgeStyle=orthogonalEdgeStyle;rounded=1;orthogonalLoop=1;jettySize=auto;html=1;labelBackgroundColor=none;fontColor=default;" edge="1" parent="1" source="QJ5VWwcvUCWhWTVHEH9p-67" target="QJ5VWwcvUCWhWTVHEH9p-70">
          <mxGeometry relative="1" as="geometry" />
        </mxCell>
        <mxCell id="QJ5VWwcvUCWhWTVHEH9p-67" value="start&lt;br&gt;game" style="rounded=1;whiteSpace=wrap;html=1;labelBackgroundColor=none;" vertex="1" parent="1">
          <mxGeometry x="550" y="100" width="120" height="30" as="geometry" />
        </mxCell>
        <mxCell id="QJ5VWwcvUCWhWTVHEH9p-73" value="" style="edgeStyle=orthogonalEdgeStyle;rounded=0;orthogonalLoop=1;jettySize=auto;html=1;" edge="1" parent="1" source="QJ5VWwcvUCWhWTVHEH9p-70" target="QJ5VWwcvUCWhWTVHEH9p-72">
          <mxGeometry relative="1" as="geometry" />
        </mxCell>
        <mxCell id="QJ5VWwcvUCWhWTVHEH9p-70" value="finish game&amp;nbsp;&lt;br&gt;send data backend" style="whiteSpace=wrap;html=1;rounded=1;labelBackgroundColor=none;" vertex="1" parent="1">
          <mxGeometry x="520" y="220" width="180" height="30" as="geometry" />
        </mxCell>
        <mxCell id="QJ5VWwcvUCWhWTVHEH9p-72" value="saved&amp;nbsp; database" style="whiteSpace=wrap;html=1;rounded=1;labelBackgroundColor=none;" vertex="1" parent="1">
          <mxGeometry x="520" y="330" width="180" height="30" as="geometry" />
        </mxCell>
        <mxCell id="QJ5VWwcvUCWhWTVHEH9p-85" value="" style="edgeStyle=orthogonalEdgeStyle;rounded=0;orthogonalLoop=1;jettySize=auto;html=1;" edge="1" parent="1" source="QJ5VWwcvUCWhWTVHEH9p-80" target="QJ5VWwcvUCWhWTVHEH9p-84">
          <mxGeometry relative="1" as="geometry" />
        </mxCell>
        <mxCell id="QJ5VWwcvUCWhWTVHEH9p-86" value="yes" style="edgeLabel;html=1;align=center;verticalAlign=middle;resizable=0;points=[];" vertex="1" connectable="0" parent="QJ5VWwcvUCWhWTVHEH9p-85">
          <mxGeometry x="-0.0286" y="4" relative="1" as="geometry">
            <mxPoint as="offset" />
          </mxGeometry>
        </mxCell>
        <mxCell id="QJ5VWwcvUCWhWTVHEH9p-88" style="edgeStyle=orthogonalEdgeStyle;rounded=0;orthogonalLoop=1;jettySize=auto;html=1;entryX=0.5;entryY=1;entryDx=0;entryDy=0;" edge="1" parent="1" source="QJ5VWwcvUCWhWTVHEH9p-80" target="QJ5VWwcvUCWhWTVHEH9p-89">
          <mxGeometry relative="1" as="geometry">
            <mxPoint x="-170" y="570" as="targetPoint" />
          </mxGeometry>
        </mxCell>
        <mxCell id="QJ5VWwcvUCWhWTVHEH9p-95" value="no" style="edgeLabel;html=1;align=center;verticalAlign=middle;resizable=0;points=[];" vertex="1" connectable="0" parent="QJ5VWwcvUCWhWTVHEH9p-88">
          <mxGeometry x="-0.492" y="-2" relative="1" as="geometry">
            <mxPoint as="offset" />
          </mxGeometry>
        </mxCell>
        <mxCell id="QJ5VWwcvUCWhWTVHEH9p-80" value="match final" style="shape=parallelogram;perimeter=parallelogramPerimeter;whiteSpace=wrap;html=1;fixedSize=1;" vertex="1" parent="1">
          <mxGeometry x="40" y="540" width="120" height="60" as="geometry" />
        </mxCell>
        <mxCell id="QJ5VWwcvUCWhWTVHEH9p-84" value="save&amp;nbsp;&lt;br&gt;data base winner and announce" style="ellipse;whiteSpace=wrap;html=1;" vertex="1" parent="1">
          <mxGeometry x="60" y="670" width="80" height="80" as="geometry" />
        </mxCell>
        <mxCell id="QJ5VWwcvUCWhWTVHEH9p-87" value="" style="endArrow=classic;html=1;rounded=0;" edge="1" parent="1">
          <mxGeometry width="50" height="50" relative="1" as="geometry">
            <mxPoint x="680" y="370" as="sourcePoint" />
            <mxPoint x="730" y="320" as="targetPoint" />
          </mxGeometry>
        </mxCell>
        <mxCell id="QJ5VWwcvUCWhWTVHEH9p-91" value="" style="edgeStyle=orthogonalEdgeStyle;rounded=0;orthogonalLoop=1;jettySize=auto;html=1;entryX=0;entryY=0.5;entryDx=0;entryDy=0;" edge="1" parent="1" source="QJ5VWwcvUCWhWTVHEH9p-89" target="QJ5VWwcvUCWhWTVHEH9p-59">
          <mxGeometry relative="1" as="geometry">
            <mxPoint x="-40" y="392.5" as="targetPoint" />
          </mxGeometry>
        </mxCell>
        <mxCell id="QJ5VWwcvUCWhWTVHEH9p-92" value="no" style="edgeLabel;html=1;align=center;verticalAlign=middle;resizable=0;points=[];" vertex="1" connectable="0" parent="QJ5VWwcvUCWhWTVHEH9p-91">
          <mxGeometry x="-0.1586" y="-1" relative="1" as="geometry">
            <mxPoint as="offset" />
          </mxGeometry>
        </mxCell>
        <mxCell id="QJ5VWwcvUCWhWTVHEH9p-93" style="edgeStyle=orthogonalEdgeStyle;rounded=0;orthogonalLoop=1;jettySize=auto;html=1;exitX=0.5;exitY=0;exitDx=0;exitDy=0;entryX=0;entryY=0.5;entryDx=0;entryDy=0;" edge="1" parent="1" source="QJ5VWwcvUCWhWTVHEH9p-89" target="QJ5VWwcvUCWhWTVHEH9p-47">
          <mxGeometry relative="1" as="geometry">
            <mxPoint x="-180" y="210" as="targetPoint" />
          </mxGeometry>
        </mxCell>
        <mxCell id="QJ5VWwcvUCWhWTVHEH9p-94" value="yes" style="edgeLabel;html=1;align=center;verticalAlign=middle;resizable=0;points=[];" vertex="1" connectable="0" parent="QJ5VWwcvUCWhWTVHEH9p-93">
          <mxGeometry x="-0.7209" y="-2" relative="1" as="geometry">
            <mxPoint as="offset" />
          </mxGeometry>
        </mxCell>
        <mxCell id="QJ5VWwcvUCWhWTVHEH9p-89" value="last match for round" style="rhombus;whiteSpace=wrap;html=1;" vertex="1" parent="1">
          <mxGeometry x="-240" y="352.5" width="120" height="105" as="geometry" />
        </mxCell>
      </root>
    </mxGraphModel>
  </diagram>
</mxfile>
